<svg width="660" height="105" viewBox="0 0 660 105" fill="none" xmlns="http://www.w3.org/2000/svg">
<path d="M0.8 -8.34465e-06H110.98C117.233 -8.34465e-06 122.413 1.21333 126.52 3.63999C130.627 5.97333 133.707 9.00666 135.76 12.74C137.907 16.4733 138.98 20.3933 138.98 24.5C138.98 28.6067 137.907 32.62 135.76 36.54C133.613 40.3667 130.347 43.4933 125.96 45.92C121.667 48.3467 116.253 49.56 109.72 49.56C109.72 49.56 109.673 49.56 109.58 49.56C109.58 49.56 109.58 49.6067 109.58 49.7C109.673 49.7 109.72 49.7 109.72 49.7C117.28 49.7 123.533 51.0533 128.48 53.76C133.427 56.4667 137.113 59.92 139.54 64.12C141.967 68.32 143.18 72.7533 143.18 77.42C143.18 80.8733 142.48 84.2333 141.08 87.5C139.773 90.7667 137.767 93.7533 135.06 96.46C132.353 99.0733 128.993 101.173 124.98 102.76C120.967 104.253 116.3 105 110.98 105H0.8C0.8 98.6533 0.8 92.3533 0.8 86.1C0.8 79.7533 0.8 73.4067 0.8 67.06C0.8 60.7133 0.8 54.4133 0.8 48.16C0.8 41.8133 0.8 35.4667 0.8 29.12C0.8 24.2667 0.8 19.4133 0.8 14.56C0.8 9.70666 0.8 4.85333 0.8 -8.34465e-06ZM55.96 55.16C55.96 56.1867 55.96 57.2133 55.96 58.24C55.96 59.2667 55.96 60.2933 55.96 61.32C55.96 62.0667 55.96 62.8133 55.96 63.56C55.96 64.2133 55.96 64.8667 55.96 65.52C55.96 66.1733 55.96 66.8267 55.96 67.48C55.96 67.5733 55.96 67.62 55.96 67.62C55.96 67.62 56.0067 67.62 56.1 67.62H75.98C78.5 67.62 80.3667 66.9667 81.58 65.66C82.8867 64.3533 83.54 62.86 83.54 61.18C83.54 60.34 83.4 59.5933 83.12 58.94C82.84 58.1933 82.42 57.54 81.86 56.98C81.3933 56.3267 80.74 55.86 79.9 55.58C79.1533 55.2067 78.2667 55.02 77.24 55.02H56.1C56.1 55.02 56.0533 55.0667 55.96 55.16ZM56.1 35.42C56.0067 35.42 55.96 35.4667 55.96 35.56C55.96 36.12 55.96 36.7733 55.96 37.52C55.96 38.1733 55.96 38.8733 55.96 39.62C55.96 40.2733 55.96 40.9733 55.96 41.72C55.96 42.7467 55.96 43.82 55.96 44.94C55.96 45.9667 55.96 46.9467 55.96 47.88C55.96 47.9733 55.96 48.02 55.96 48.02C55.96 48.02 56.0067 48.02 56.1 48.02H75.28C76.96 48.02 78.36 47.74 79.48 47.18C80.6 46.5267 81.44 45.7333 82 44.8C82.56 43.7733 82.84 42.7 82.84 41.58C82.84 39.9933 82.28 38.5933 81.16 37.38C80.1333 36.0733 78.5933 35.42 76.54 35.42H56.1ZM205.326 63.56C205.326 63.6533 205.326 63.7467 205.326 63.84C205.419 63.84 205.512 63.84 205.606 63.84H260.206V105H147.226C147.226 99.2133 147.226 93.4267 147.226 87.64C147.226 81.8533 147.226 76.0667 147.226 70.28C147.226 64.4 147.226 58.5667 147.226 52.78C147.226 46.9933 147.226 41.2067 147.226 35.42C147.226 29.54 147.226 23.66 147.226 17.78C147.226 11.8067 147.226 5.87999 147.226 -8.34465e-06H205.326C205.326 5.32 205.326 10.64 205.326 15.96C205.326 21.1867 205.326 26.46 205.326 31.78C205.326 37.1 205.326 42.42 205.326 47.74C205.326 52.9667 205.326 58.24 205.326 63.56ZM379.034 -8.34465e-06C380.714 5.78666 382.347 11.62 383.934 17.5C385.614 23.2867 387.247 29.12 388.834 35C390.514 40.7867 392.194 46.62 393.874 52.5C395.554 58.2867 397.187 64.12 398.774 70C400.454 75.7867 402.087 81.62 403.674 87.5C405.354 93.2867 407.034 99.12 408.714 105H346.274L343.894 91.28C343.521 91.28 343.194 91.28 342.914 91.28C342.634 91.28 342.307 91.28 341.934 91.28H326.534C326.254 91.28 325.974 91.28 325.694 91.28C325.414 91.28 325.134 91.28 324.854 91.28L322.474 105H262.694C264.374 99.12 266.007 93.2867 267.594 87.5C269.274 81.62 270.907 75.7867 272.494 70C274.174 64.12 275.807 58.2867 277.394 52.5C279.074 46.62 280.707 40.7867 282.294 35C283.974 29.12 285.607 23.2867 287.194 17.5C288.874 11.62 290.507 5.78666 292.094 -8.34465e-06H379.034ZM326.534 81.34C326.534 81.4333 326.534 81.48 326.534 81.48C326.534 81.48 326.581 81.48 326.674 81.48H342.074C342.167 81.48 342.214 81.48 342.214 81.48C342.214 81.3867 342.214 81.34 342.214 81.34C342.214 81.34 342.027 80.22 341.654 77.98C341.281 75.6467 340.767 72.7533 340.114 69.3C339.554 65.7533 338.947 62.02 338.294 58.1C337.641 54.0867 337.034 50.3067 336.474 46.76C335.914 43.2133 335.401 40.32 334.934 38.08C334.561 35.84 334.374 34.72 334.374 34.72C334.374 34.72 334.327 34.72 334.234 34.72C334.234 34.72 334.047 35.84 333.674 38.08C333.301 40.32 332.787 43.2133 332.134 46.76C331.574 50.3067 330.967 54.0867 330.314 58.1C329.661 62.02 329.054 65.7533 328.494 69.3C327.934 72.7533 327.467 75.6467 327.094 77.98C326.721 80.22 326.534 81.34 326.534 81.34ZM539.111 -8.34465e-06L494.871 63C494.871 63 494.871 63.0467 494.871 63.14C494.964 63.14 495.011 63.14 495.011 63.14H535.751V105H409.891L458.471 41.86C458.471 41.7667 458.471 41.72 458.471 41.72C458.471 41.72 458.424 41.72 458.331 41.72H413.951V-8.34465e-06H539.111ZM658.579 35.28H597.679C597.586 35.28 597.539 35.28 597.539 35.28V42.98C597.539 43.0733 597.539 43.1667 597.539 43.26C597.632 43.26 597.679 43.26 597.679 43.26H656.479V63H597.679C597.679 63 597.632 63 597.539 63C597.539 63 597.539 63.0467 597.539 63.14C597.539 63.14 597.539 63.1867 597.539 63.28V71.12C597.632 71.12 597.679 71.12 597.679 71.12H659.419V105H540.839C540.839 99.4933 540.839 93.9867 540.839 88.48C540.839 82.88 540.839 77.3267 540.839 71.82C540.839 66.3133 540.839 60.8067 540.839 55.3C540.839 49.7 540.839 44.1467 540.839 38.64C540.839 33.04 540.839 27.4867 540.839 21.98C540.839 18.34 540.839 14.7 540.839 11.06C540.839 7.32666 540.839 3.63999 540.839 -8.34465e-06H658.579V35.28Z" fill="#3B82F6"/>
</svg>
