<svg width="131" height="108" viewBox="0 0 131 108" fill="none" xmlns="http://www.w3.org/2000/svg">
<path d="M0.8 -8.34465e-06H49.24C49.24 3.73333 49.24 8.35333 49.24 13.86C49.24 19.2733 49.24 24.9667 49.24 30.94C49.24 36.82 49.24 42.5133 49.24 48.02C49.24 53.4333 49.24 58.0067 49.24 61.74C49.24 63.5133 49.7067 65.0533 50.64 66.36C51.5733 67.6667 52.8333 68.74 54.42 69.58C56.0067 70.42 57.78 71.0733 59.74 71.54C61.7933 71.9133 63.8467 72.1 65.9 72.1C71.4067 72.1 75.4667 71.0267 78.08 68.88C80.6933 66.7333 82 64.3533 82 61.74C82 59.78 81.3933 58.0067 80.18 56.42C79.06 54.8333 77.2867 53.5733 74.86 52.64C72.5267 51.6133 69.54 51.1 65.9 51.1C61.98 51.1 58.48 51.8 55.4 53.2C52.4133 54.6 50.4067 56.8867 49.38 60.06L60.44 18.2C63.52 17.4533 66.5533 16.94 69.54 16.66C72.62 16.2867 75.6067 16.1 78.5 16.1C85.6867 16.1 92.4533 17.1267 98.8 19.18C105.147 21.14 110.7 24.08 115.46 28C120.313 31.92 124.093 36.68 126.8 42.28C129.6 47.88 131 54.2733 131 61.46C131 68.3667 129.6 74.62 126.8 80.22C124.093 85.82 120.36 90.6267 115.6 94.64C110.933 98.6533 105.66 101.733 99.78 103.88C93.9 106.027 87.7867 107.1 81.44 107.1C78.7333 107.1 75.9333 106.913 73.04 106.54C70.24 106.167 67.44 105.56 64.64 104.72C61.84 103.88 59.1333 102.713 56.52 101.22C54 99.7267 51.6667 97.86 49.52 95.62C49.4267 95.5267 49.3333 95.5267 49.24 95.62C49.24 95.62 49.24 95.6667 49.24 95.76V105H0.8C0.8 98.6533 0.8 92.3533 0.8 86.1C0.8 79.7533 0.8 73.4533 0.8 67.2C0.8 60.8533 0.8 54.5533 0.8 48.3C0.8 41.9533 0.8 35.6067 0.8 29.26C0.8 24.4067 0.8 19.5533 0.8 14.7C0.8 9.75333 0.8 4.85333 0.8 -8.34465e-06Z" fill="#3B82F6"/>
</svg>
